<mxfile host="app.diagrams.net" modified="2023-10-24T09:35:03.364Z" agent="Mozilla/5.0 (Windows NT 10.0; Win64; x64) AppleWebKit/537.36 (KHTML, like Gecko) Chrome/118.0.0.0 Safari/537.36" etag="gaik_nvLGUfJBjEcqk84" version="22.0.6" type="device">
  <diagram name="PÃ¡gina-1" id="AiTBYOJLLw1ZxXQ4s2i_">
    <mxGraphModel dx="1105" dy="571" grid="1" gridSize="10" guides="1" tooltips="1" connect="1" arrows="1" fold="1" page="1" pageScale="1" pageWidth="2336" pageHeight="1654" math="0" shadow="0">
      <root>
        <mxCell id="0" />
        <mxCell id="1" parent="0" />
        <mxCell id="EWKSh8gcWTgYiogNN_7c-33" style="edgeStyle=orthogonalEdgeStyle;rounded=0;orthogonalLoop=1;jettySize=auto;html=1;exitX=0.5;exitY=0;exitDx=0;exitDy=0;entryX=0.5;entryY=1;entryDx=0;entryDy=0;endArrow=none;endFill=0;" edge="1" source="EWKSh8gcWTgYiogNN_7c-37" target="EWKSh8gcWTgYiogNN_7c-38" parent="1">
          <mxGeometry relative="1" as="geometry" />
        </mxCell>
        <mxCell id="EWKSh8gcWTgYiogNN_7c-34" style="edgeStyle=orthogonalEdgeStyle;rounded=0;orthogonalLoop=1;jettySize=auto;html=1;exitX=0;exitY=0.5;exitDx=0;exitDy=0;entryX=1;entryY=0.5;entryDx=0;entryDy=0;endArrow=none;endFill=0;" edge="1" source="EWKSh8gcWTgYiogNN_7c-37" target="EWKSh8gcWTgYiogNN_7c-43" parent="1">
          <mxGeometry relative="1" as="geometry" />
        </mxCell>
        <mxCell id="EWKSh8gcWTgYiogNN_7c-35" style="edgeStyle=orthogonalEdgeStyle;rounded=0;orthogonalLoop=1;jettySize=auto;html=1;exitX=0.5;exitY=1;exitDx=0;exitDy=0;entryX=0.5;entryY=0;entryDx=0;entryDy=0;endArrow=none;endFill=0;" edge="1" source="EWKSh8gcWTgYiogNN_7c-37" target="EWKSh8gcWTgYiogNN_7c-54" parent="1">
          <mxGeometry relative="1" as="geometry" />
        </mxCell>
        <mxCell id="EWKSh8gcWTgYiogNN_7c-36" style="edgeStyle=orthogonalEdgeStyle;rounded=0;orthogonalLoop=1;jettySize=auto;html=1;exitX=1;exitY=0.5;exitDx=0;exitDy=0;entryX=0;entryY=0.5;entryDx=0;entryDy=0;endArrow=none;endFill=0;" edge="1" source="EWKSh8gcWTgYiogNN_7c-37" target="EWKSh8gcWTgYiogNN_7c-53" parent="1">
          <mxGeometry relative="1" as="geometry" />
        </mxCell>
        <mxCell id="EWKSh8gcWTgYiogNN_7c-94" style="edgeStyle=orthogonalEdgeStyle;rounded=0;orthogonalLoop=1;jettySize=auto;html=1;exitX=0.25;exitY=0;exitDx=0;exitDy=0;entryX=1;entryY=0.5;entryDx=0;entryDy=0;endArrow=none;endFill=0;" edge="1" parent="1" source="EWKSh8gcWTgYiogNN_7c-37" target="EWKSh8gcWTgYiogNN_7c-92">
          <mxGeometry relative="1" as="geometry" />
        </mxCell>
        <mxCell id="EWKSh8gcWTgYiogNN_7c-37" value="CITA" style="rounded=0;whiteSpace=wrap;html=1;" vertex="1" parent="1">
          <mxGeometry x="900" y="540" width="100" height="40" as="geometry" />
        </mxCell>
        <mxCell id="EWKSh8gcWTgYiogNN_7c-38" value="compuesta" style="rhombus;whiteSpace=wrap;html=1;" vertex="1" parent="1">
          <mxGeometry x="920" y="440" width="60" height="50" as="geometry" />
        </mxCell>
        <mxCell id="EWKSh8gcWTgYiogNN_7c-39" style="edgeStyle=orthogonalEdgeStyle;rounded=0;orthogonalLoop=1;jettySize=auto;html=1;exitX=0.5;exitY=1;exitDx=0;exitDy=0;entryX=0.5;entryY=0;entryDx=0;entryDy=0;endArrow=none;endFill=0;" edge="1" source="EWKSh8gcWTgYiogNN_7c-40" target="EWKSh8gcWTgYiogNN_7c-38" parent="1">
          <mxGeometry relative="1" as="geometry" />
        </mxCell>
        <mxCell id="EWKSh8gcWTgYiogNN_7c-40" value="RESERVA" style="rounded=0;whiteSpace=wrap;html=1;" vertex="1" parent="1">
          <mxGeometry x="900" y="350" width="100" height="40" as="geometry" />
        </mxCell>
        <mxCell id="EWKSh8gcWTgYiogNN_7c-41" value="1" style="text;html=1;align=center;verticalAlign=middle;resizable=0;points=[];autosize=1;strokeColor=none;fillColor=none;" vertex="1" parent="1">
          <mxGeometry x="945" y="388" width="30" height="30" as="geometry" />
        </mxCell>
        <mxCell id="EWKSh8gcWTgYiogNN_7c-42" value="*" style="text;html=1;align=center;verticalAlign=middle;resizable=0;points=[];autosize=1;strokeColor=none;fillColor=none;" vertex="1" parent="1">
          <mxGeometry x="945" y="518" width="30" height="30" as="geometry" />
        </mxCell>
        <mxCell id="EWKSh8gcWTgYiogNN_7c-43" value="asiste" style="rhombus;whiteSpace=wrap;html=1;" vertex="1" parent="1">
          <mxGeometry x="790" y="535" width="60" height="50" as="geometry" />
        </mxCell>
        <mxCell id="EWKSh8gcWTgYiogNN_7c-44" style="edgeStyle=orthogonalEdgeStyle;rounded=0;orthogonalLoop=1;jettySize=auto;html=1;exitX=1;exitY=0.5;exitDx=0;exitDy=0;entryX=0;entryY=0.5;entryDx=0;entryDy=0;endArrow=none;endFill=0;" edge="1" source="EWKSh8gcWTgYiogNN_7c-45" target="EWKSh8gcWTgYiogNN_7c-43" parent="1">
          <mxGeometry relative="1" as="geometry" />
        </mxCell>
        <mxCell id="EWKSh8gcWTgYiogNN_7c-45" value="CLIENTE" style="rounded=0;whiteSpace=wrap;html=1;" vertex="1" parent="1">
          <mxGeometry x="640" y="540" width="100" height="40" as="geometry" />
        </mxCell>
        <mxCell id="EWKSh8gcWTgYiogNN_7c-46" value="*" style="text;html=1;align=center;verticalAlign=middle;resizable=0;points=[];autosize=1;strokeColor=none;fillColor=none;" vertex="1" parent="1">
          <mxGeometry x="875" y="538" width="30" height="30" as="geometry" />
        </mxCell>
        <mxCell id="EWKSh8gcWTgYiogNN_7c-47" value="1" style="text;html=1;align=center;verticalAlign=middle;resizable=0;points=[];autosize=1;strokeColor=none;fillColor=none;" vertex="1" parent="1">
          <mxGeometry x="735" y="528" width="30" height="30" as="geometry" />
        </mxCell>
        <mxCell id="EWKSh8gcWTgYiogNN_7c-48" style="edgeStyle=orthogonalEdgeStyle;rounded=0;orthogonalLoop=1;jettySize=auto;html=1;exitX=0.5;exitY=0;exitDx=0;exitDy=0;entryX=0.5;entryY=1;entryDx=0;entryDy=0;endArrow=none;endFill=0;" edge="1" source="EWKSh8gcWTgYiogNN_7c-49" target="EWKSh8gcWTgYiogNN_7c-54" parent="1">
          <mxGeometry relative="1" as="geometry" />
        </mxCell>
        <mxCell id="EWKSh8gcWTgYiogNN_7c-67" style="edgeStyle=orthogonalEdgeStyle;rounded=0;orthogonalLoop=1;jettySize=auto;html=1;exitX=0;exitY=0.5;exitDx=0;exitDy=0;entryX=1;entryY=0.5;entryDx=0;entryDy=0;endArrow=none;endFill=0;" edge="1" parent="1" source="EWKSh8gcWTgYiogNN_7c-49" target="EWKSh8gcWTgYiogNN_7c-64">
          <mxGeometry relative="1" as="geometry" />
        </mxCell>
        <mxCell id="EWKSh8gcWTgYiogNN_7c-49" value="SERVICIO" style="rounded=0;whiteSpace=wrap;html=1;" vertex="1" parent="1">
          <mxGeometry x="900" y="680" width="100" height="40" as="geometry" />
        </mxCell>
        <mxCell id="EWKSh8gcWTgYiogNN_7c-107" style="edgeStyle=orthogonalEdgeStyle;rounded=0;orthogonalLoop=1;jettySize=auto;html=1;exitX=1;exitY=0.5;exitDx=0;exitDy=0;entryX=0;entryY=0.5;entryDx=0;entryDy=0;endArrow=none;endFill=0;" edge="1" parent="1" source="EWKSh8gcWTgYiogNN_7c-50" target="EWKSh8gcWTgYiogNN_7c-105">
          <mxGeometry relative="1" as="geometry" />
        </mxCell>
        <mxCell id="EWKSh8gcWTgYiogNN_7c-50" value="PAGO" style="rounded=0;whiteSpace=wrap;html=1;" vertex="1" parent="1">
          <mxGeometry x="1110" y="540" width="100" height="40" as="geometry" />
        </mxCell>
        <mxCell id="EWKSh8gcWTgYiogNN_7c-100" style="edgeStyle=orthogonalEdgeStyle;rounded=0;orthogonalLoop=1;jettySize=auto;html=1;exitX=1;exitY=0.5;exitDx=0;exitDy=0;entryX=0;entryY=0.5;entryDx=0;entryDy=0;endArrow=none;endFill=0;" edge="1" parent="1" source="EWKSh8gcWTgYiogNN_7c-51" target="EWKSh8gcWTgYiogNN_7c-98">
          <mxGeometry relative="1" as="geometry" />
        </mxCell>
        <mxCell id="EWKSh8gcWTgYiogNN_7c-51" value="HORARIO" style="rounded=0;whiteSpace=wrap;html=1;" vertex="1" parent="1">
          <mxGeometry x="1090" y="710" width="100" height="40" as="geometry" />
        </mxCell>
        <mxCell id="EWKSh8gcWTgYiogNN_7c-52" style="edgeStyle=orthogonalEdgeStyle;rounded=0;orthogonalLoop=1;jettySize=auto;html=1;exitX=1;exitY=0.5;exitDx=0;exitDy=0;entryX=0;entryY=0.5;entryDx=0;entryDy=0;endArrow=none;endFill=0;" edge="1" source="EWKSh8gcWTgYiogNN_7c-53" target="EWKSh8gcWTgYiogNN_7c-50" parent="1">
          <mxGeometry relative="1" as="geometry" />
        </mxCell>
        <mxCell id="EWKSh8gcWTgYiogNN_7c-53" value="tiene" style="rhombus;whiteSpace=wrap;html=1;" vertex="1" parent="1">
          <mxGeometry x="1030" y="535" width="60" height="50" as="geometry" />
        </mxCell>
        <mxCell id="EWKSh8gcWTgYiogNN_7c-54" value="realizado" style="rhombus;whiteSpace=wrap;html=1;" vertex="1" parent="1">
          <mxGeometry x="920" y="600" width="60" height="50" as="geometry" />
        </mxCell>
        <mxCell id="EWKSh8gcWTgYiogNN_7c-55" style="edgeStyle=orthogonalEdgeStyle;rounded=0;orthogonalLoop=1;jettySize=auto;html=1;exitX=0.5;exitY=1;exitDx=0;exitDy=0;entryX=0.5;entryY=0;entryDx=0;entryDy=0;endArrow=none;endFill=0;" edge="1" source="EWKSh8gcWTgYiogNN_7c-56" target="EWKSh8gcWTgYiogNN_7c-51" parent="1">
          <mxGeometry relative="1" as="geometry" />
        </mxCell>
        <mxCell id="EWKSh8gcWTgYiogNN_7c-56" value="tiene" style="rhombus;whiteSpace=wrap;html=1;" vertex="1" parent="1">
          <mxGeometry x="1060" y="630" width="60" height="50" as="geometry" />
        </mxCell>
        <mxCell id="EWKSh8gcWTgYiogNN_7c-57" style="edgeStyle=orthogonalEdgeStyle;rounded=0;orthogonalLoop=1;jettySize=auto;html=1;exitX=0.5;exitY=0;exitDx=0;exitDy=0;entryX=0.9;entryY=1;entryDx=0;entryDy=0;entryPerimeter=0;endArrow=none;endFill=0;" edge="1" source="EWKSh8gcWTgYiogNN_7c-56" target="EWKSh8gcWTgYiogNN_7c-37" parent="1">
          <mxGeometry relative="1" as="geometry" />
        </mxCell>
        <mxCell id="EWKSh8gcWTgYiogNN_7c-58" value="1" style="text;html=1;align=center;verticalAlign=middle;resizable=0;points=[];autosize=1;strokeColor=none;fillColor=none;" vertex="1" parent="1">
          <mxGeometry x="990" y="535" width="30" height="30" as="geometry" />
        </mxCell>
        <mxCell id="EWKSh8gcWTgYiogNN_7c-59" value="1" style="text;html=1;align=center;verticalAlign=middle;resizable=0;points=[];autosize=1;strokeColor=none;fillColor=none;" vertex="1" parent="1">
          <mxGeometry x="1085" y="528" width="30" height="30" as="geometry" />
        </mxCell>
        <mxCell id="EWKSh8gcWTgYiogNN_7c-60" value="1" style="text;html=1;align=center;verticalAlign=middle;resizable=0;points=[];autosize=1;strokeColor=none;fillColor=none;" vertex="1" parent="1">
          <mxGeometry x="945" y="570" width="30" height="30" as="geometry" />
        </mxCell>
        <mxCell id="EWKSh8gcWTgYiogNN_7c-61" value="*" style="text;html=1;align=center;verticalAlign=middle;resizable=0;points=[];autosize=1;strokeColor=none;fillColor=none;" vertex="1" parent="1">
          <mxGeometry x="945" y="660" width="30" height="30" as="geometry" />
        </mxCell>
        <mxCell id="EWKSh8gcWTgYiogNN_7c-62" value="1" style="text;html=1;align=center;verticalAlign=middle;resizable=0;points=[];autosize=1;strokeColor=none;fillColor=none;" vertex="1" parent="1">
          <mxGeometry x="1135" y="688" width="30" height="30" as="geometry" />
        </mxCell>
        <mxCell id="EWKSh8gcWTgYiogNN_7c-63" value="0-*" style="text;html=1;align=center;verticalAlign=middle;resizable=0;points=[];autosize=1;strokeColor=none;fillColor=none;" vertex="1" parent="1">
          <mxGeometry x="985" y="570" width="40" height="30" as="geometry" />
        </mxCell>
        <mxCell id="EWKSh8gcWTgYiogNN_7c-64" value="compuesto" style="rhombus;whiteSpace=wrap;html=1;" vertex="1" parent="1">
          <mxGeometry x="800" y="675" width="60" height="50" as="geometry" />
        </mxCell>
        <mxCell id="EWKSh8gcWTgYiogNN_7c-66" style="edgeStyle=orthogonalEdgeStyle;rounded=0;orthogonalLoop=1;jettySize=auto;html=1;exitX=1;exitY=0.5;exitDx=0;exitDy=0;entryX=0;entryY=0.5;entryDx=0;entryDy=0;endArrow=none;endFill=0;" edge="1" parent="1" source="EWKSh8gcWTgYiogNN_7c-65" target="EWKSh8gcWTgYiogNN_7c-64">
          <mxGeometry relative="1" as="geometry" />
        </mxCell>
        <mxCell id="EWKSh8gcWTgYiogNN_7c-65" value="tipoSERVICIO" style="rounded=0;whiteSpace=wrap;html=1;" vertex="1" parent="1">
          <mxGeometry x="640" y="680" width="100" height="40" as="geometry" />
        </mxCell>
        <mxCell id="EWKSh8gcWTgYiogNN_7c-68" value="1" style="text;html=1;align=center;verticalAlign=middle;resizable=0;points=[];autosize=1;strokeColor=none;fillColor=none;" vertex="1" parent="1">
          <mxGeometry x="735" y="668" width="30" height="30" as="geometry" />
        </mxCell>
        <mxCell id="EWKSh8gcWTgYiogNN_7c-69" value="1" style="text;html=1;align=center;verticalAlign=middle;resizable=0;points=[];autosize=1;strokeColor=none;fillColor=none;" vertex="1" parent="1">
          <mxGeometry x="875" y="678" width="30" height="30" as="geometry" />
        </mxCell>
        <mxCell id="EWKSh8gcWTgYiogNN_7c-78" style="edgeStyle=orthogonalEdgeStyle;rounded=0;orthogonalLoop=1;jettySize=auto;html=1;exitX=1;exitY=0.5;exitDx=0;exitDy=0;entryX=0.5;entryY=0;entryDx=0;entryDy=0;endArrow=none;endFill=0;" edge="1" parent="1" source="EWKSh8gcWTgYiogNN_7c-70" target="EWKSh8gcWTgYiogNN_7c-76">
          <mxGeometry relative="1" as="geometry" />
        </mxCell>
        <mxCell id="EWKSh8gcWTgYiogNN_7c-70" value="COMPRA" style="rounded=0;whiteSpace=wrap;html=1;" vertex="1" parent="1">
          <mxGeometry x="900" y="260" width="100" height="40" as="geometry" />
        </mxCell>
        <mxCell id="EWKSh8gcWTgYiogNN_7c-72" style="edgeStyle=orthogonalEdgeStyle;rounded=0;orthogonalLoop=1;jettySize=auto;html=1;exitX=1;exitY=0.5;exitDx=0;exitDy=0;entryX=0;entryY=0.5;entryDx=0;entryDy=0;endArrow=none;endFill=0;" edge="1" parent="1" source="EWKSh8gcWTgYiogNN_7c-71" target="EWKSh8gcWTgYiogNN_7c-70">
          <mxGeometry relative="1" as="geometry" />
        </mxCell>
        <mxCell id="EWKSh8gcWTgYiogNN_7c-73" style="edgeStyle=orthogonalEdgeStyle;rounded=0;orthogonalLoop=1;jettySize=auto;html=1;exitX=0.5;exitY=1;exitDx=0;exitDy=0;entryX=0.5;entryY=0;entryDx=0;entryDy=0;endArrow=none;endFill=0;" edge="1" parent="1" source="EWKSh8gcWTgYiogNN_7c-71" target="EWKSh8gcWTgYiogNN_7c-45">
          <mxGeometry relative="1" as="geometry" />
        </mxCell>
        <mxCell id="EWKSh8gcWTgYiogNN_7c-71" value="hace" style="rhombus;whiteSpace=wrap;html=1;" vertex="1" parent="1">
          <mxGeometry x="660" y="255" width="60" height="50" as="geometry" />
        </mxCell>
        <mxCell id="EWKSh8gcWTgYiogNN_7c-74" value="1" style="text;html=1;align=center;verticalAlign=middle;resizable=0;points=[];autosize=1;strokeColor=none;fillColor=none;" vertex="1" parent="1">
          <mxGeometry x="685" y="508" width="30" height="30" as="geometry" />
        </mxCell>
        <mxCell id="EWKSh8gcWTgYiogNN_7c-75" value="0-*" style="text;html=1;align=center;verticalAlign=middle;resizable=0;points=[];autosize=1;strokeColor=none;fillColor=none;" vertex="1" parent="1">
          <mxGeometry x="860" y="248" width="40" height="30" as="geometry" />
        </mxCell>
        <mxCell id="EWKSh8gcWTgYiogNN_7c-77" style="edgeStyle=orthogonalEdgeStyle;rounded=0;orthogonalLoop=1;jettySize=auto;html=1;exitX=0.5;exitY=1;exitDx=0;exitDy=0;entryX=0.25;entryY=0;entryDx=0;entryDy=0;endArrow=none;endFill=0;" edge="1" parent="1" source="EWKSh8gcWTgYiogNN_7c-76" target="EWKSh8gcWTgYiogNN_7c-50">
          <mxGeometry relative="1" as="geometry" />
        </mxCell>
        <mxCell id="EWKSh8gcWTgYiogNN_7c-76" value="vale" style="rhombus;whiteSpace=wrap;html=1;" vertex="1" parent="1">
          <mxGeometry x="1070" y="390" width="60" height="50" as="geometry" />
        </mxCell>
        <mxCell id="EWKSh8gcWTgYiogNN_7c-79" value="1" style="text;html=1;align=center;verticalAlign=middle;resizable=0;points=[];autosize=1;strokeColor=none;fillColor=none;" vertex="1" parent="1">
          <mxGeometry x="1115" y="510" width="30" height="30" as="geometry" />
        </mxCell>
        <mxCell id="EWKSh8gcWTgYiogNN_7c-80" value="1" style="text;html=1;align=center;verticalAlign=middle;resizable=0;points=[];autosize=1;strokeColor=none;fillColor=none;" vertex="1" parent="1">
          <mxGeometry x="990" y="275" width="30" height="30" as="geometry" />
        </mxCell>
        <mxCell id="EWKSh8gcWTgYiogNN_7c-84" style="edgeStyle=orthogonalEdgeStyle;rounded=0;orthogonalLoop=1;jettySize=auto;html=1;exitX=0;exitY=0.5;exitDx=0;exitDy=0;endArrow=none;endFill=0;" edge="1" parent="1" source="EWKSh8gcWTgYiogNN_7c-81">
          <mxGeometry relative="1" as="geometry">
            <mxPoint x="1100" y="279.72727272727263" as="targetPoint" />
          </mxGeometry>
        </mxCell>
        <mxCell id="EWKSh8gcWTgYiogNN_7c-85" style="edgeStyle=orthogonalEdgeStyle;rounded=0;orthogonalLoop=1;jettySize=auto;html=1;exitX=1;exitY=0.5;exitDx=0;exitDy=0;entryX=0;entryY=0.5;entryDx=0;entryDy=0;endArrow=none;endFill=0;" edge="1" parent="1" source="EWKSh8gcWTgYiogNN_7c-81" target="EWKSh8gcWTgYiogNN_7c-83">
          <mxGeometry relative="1" as="geometry" />
        </mxCell>
        <mxCell id="EWKSh8gcWTgYiogNN_7c-81" value="tiene" style="rhombus;whiteSpace=wrap;html=1;" vertex="1" parent="1">
          <mxGeometry x="1130" y="255" width="60" height="50" as="geometry" />
        </mxCell>
        <mxCell id="EWKSh8gcWTgYiogNN_7c-116" style="edgeStyle=orthogonalEdgeStyle;rounded=0;orthogonalLoop=1;jettySize=auto;html=1;exitX=0.5;exitY=1;exitDx=0;exitDy=0;entryX=0.5;entryY=0;entryDx=0;entryDy=0;endArrow=none;endFill=0;" edge="1" parent="1" source="EWKSh8gcWTgYiogNN_7c-83" target="EWKSh8gcWTgYiogNN_7c-112">
          <mxGeometry relative="1" as="geometry" />
        </mxCell>
        <mxCell id="EWKSh8gcWTgYiogNN_7c-83" value="ARTICULO" style="rounded=0;whiteSpace=wrap;html=1;" vertex="1" parent="1">
          <mxGeometry x="1250" y="260" width="100" height="40" as="geometry" />
        </mxCell>
        <mxCell id="EWKSh8gcWTgYiogNN_7c-87" value="1" style="text;html=1;align=center;verticalAlign=middle;resizable=0;points=[];autosize=1;strokeColor=none;fillColor=none;" vertex="1" parent="1">
          <mxGeometry x="995" y="248" width="30" height="30" as="geometry" />
        </mxCell>
        <mxCell id="EWKSh8gcWTgYiogNN_7c-88" value="1-*" style="text;html=1;align=center;verticalAlign=middle;resizable=0;points=[];autosize=1;strokeColor=none;fillColor=none;" vertex="1" parent="1">
          <mxGeometry x="1220" y="258" width="40" height="30" as="geometry" />
        </mxCell>
        <mxCell id="EWKSh8gcWTgYiogNN_7c-91" value="RESEÃA" style="rounded=0;whiteSpace=wrap;html=1;" vertex="1" parent="1">
          <mxGeometry x="760" y="410" width="100" height="40" as="geometry" />
        </mxCell>
        <mxCell id="EWKSh8gcWTgYiogNN_7c-95" style="edgeStyle=orthogonalEdgeStyle;rounded=0;orthogonalLoop=1;jettySize=auto;html=1;exitX=0.5;exitY=0;exitDx=0;exitDy=0;entryX=0.75;entryY=1;entryDx=0;entryDy=0;endArrow=none;endFill=0;" edge="1" parent="1" source="EWKSh8gcWTgYiogNN_7c-92" target="EWKSh8gcWTgYiogNN_7c-91">
          <mxGeometry relative="1" as="geometry" />
        </mxCell>
        <mxCell id="EWKSh8gcWTgYiogNN_7c-92" value="tiene" style="rhombus;whiteSpace=wrap;html=1;" vertex="1" parent="1">
          <mxGeometry x="830" y="468" width="60" height="50" as="geometry" />
        </mxCell>
        <mxCell id="EWKSh8gcWTgYiogNN_7c-96" value="0-1" style="text;html=1;align=center;verticalAlign=middle;resizable=0;points=[];autosize=1;strokeColor=none;fillColor=none;" vertex="1" parent="1">
          <mxGeometry x="830" y="440" width="40" height="30" as="geometry" />
        </mxCell>
        <mxCell id="EWKSh8gcWTgYiogNN_7c-97" value="1" style="text;html=1;align=center;verticalAlign=middle;resizable=0;points=[];autosize=1;strokeColor=none;fillColor=none;" vertex="1" parent="1">
          <mxGeometry x="895" y="508" width="30" height="30" as="geometry" />
        </mxCell>
        <mxCell id="EWKSh8gcWTgYiogNN_7c-98" value="trabaja" style="rhombus;whiteSpace=wrap;html=1;" vertex="1" parent="1">
          <mxGeometry x="1250" y="705" width="60" height="50" as="geometry" />
        </mxCell>
        <mxCell id="EWKSh8gcWTgYiogNN_7c-101" style="edgeStyle=orthogonalEdgeStyle;rounded=0;orthogonalLoop=1;jettySize=auto;html=1;exitX=0;exitY=0.5;exitDx=0;exitDy=0;entryX=1;entryY=0.5;entryDx=0;entryDy=0;endArrow=none;endFill=0;" edge="1" parent="1" source="EWKSh8gcWTgYiogNN_7c-99" target="EWKSh8gcWTgYiogNN_7c-98">
          <mxGeometry relative="1" as="geometry" />
        </mxCell>
        <mxCell id="EWKSh8gcWTgYiogNN_7c-99" value="EMPLEADO" style="rounded=0;whiteSpace=wrap;html=1;" vertex="1" parent="1">
          <mxGeometry x="1380" y="710" width="100" height="40" as="geometry" />
        </mxCell>
        <mxCell id="EWKSh8gcWTgYiogNN_7c-102" value="1" style="text;html=1;align=center;verticalAlign=middle;resizable=0;points=[];autosize=1;strokeColor=none;fillColor=none;" vertex="1" parent="1">
          <mxGeometry x="1185" y="698" width="30" height="30" as="geometry" />
        </mxCell>
        <mxCell id="EWKSh8gcWTgYiogNN_7c-103" value="0-*" style="text;html=1;align=center;verticalAlign=middle;resizable=0;points=[];autosize=1;strokeColor=none;fillColor=none;" vertex="1" parent="1">
          <mxGeometry x="1350" y="698" width="40" height="30" as="geometry" />
        </mxCell>
        <mxCell id="EWKSh8gcWTgYiogNN_7c-104" value="METODO_PAGO" style="rounded=0;whiteSpace=wrap;html=1;" vertex="1" parent="1">
          <mxGeometry x="1360" y="540" width="100" height="40" as="geometry" />
        </mxCell>
        <mxCell id="EWKSh8gcWTgYiogNN_7c-108" style="edgeStyle=orthogonalEdgeStyle;rounded=0;orthogonalLoop=1;jettySize=auto;html=1;exitX=1;exitY=0.5;exitDx=0;exitDy=0;entryX=0;entryY=0.5;entryDx=0;entryDy=0;endArrow=none;endFill=0;" edge="1" parent="1" source="EWKSh8gcWTgYiogNN_7c-105" target="EWKSh8gcWTgYiogNN_7c-104">
          <mxGeometry relative="1" as="geometry" />
        </mxCell>
        <mxCell id="EWKSh8gcWTgYiogNN_7c-105" value="ejecuta" style="rhombus;whiteSpace=wrap;html=1;" vertex="1" parent="1">
          <mxGeometry x="1250" y="535" width="60" height="50" as="geometry" />
        </mxCell>
        <mxCell id="EWKSh8gcWTgYiogNN_7c-109" value="1" style="text;html=1;align=center;verticalAlign=middle;resizable=0;points=[];autosize=1;strokeColor=none;fillColor=none;" vertex="1" parent="1">
          <mxGeometry x="1205" y="538" width="30" height="30" as="geometry" />
        </mxCell>
        <mxCell id="EWKSh8gcWTgYiogNN_7c-110" value="1" style="text;html=1;align=center;verticalAlign=middle;resizable=0;points=[];autosize=1;strokeColor=none;fillColor=none;" vertex="1" parent="1">
          <mxGeometry x="1335" y="538" width="30" height="30" as="geometry" />
        </mxCell>
        <mxCell id="EWKSh8gcWTgYiogNN_7c-112" value="es" style="rhombus;whiteSpace=wrap;html=1;" vertex="1" parent="1">
          <mxGeometry x="1270" y="330" width="60" height="50" as="geometry" />
        </mxCell>
        <mxCell id="EWKSh8gcWTgYiogNN_7c-117" style="edgeStyle=orthogonalEdgeStyle;rounded=0;orthogonalLoop=1;jettySize=auto;html=1;exitX=0.5;exitY=0;exitDx=0;exitDy=0;entryX=0.5;entryY=1;entryDx=0;entryDy=0;endArrow=none;endFill=0;" edge="1" parent="1" source="EWKSh8gcWTgYiogNN_7c-113" target="EWKSh8gcWTgYiogNN_7c-112">
          <mxGeometry relative="1" as="geometry" />
        </mxCell>
        <mxCell id="EWKSh8gcWTgYiogNN_7c-118" style="edgeStyle=orthogonalEdgeStyle;rounded=0;orthogonalLoop=1;jettySize=auto;html=1;exitX=1;exitY=0.5;exitDx=0;exitDy=0;entryX=0;entryY=0.5;entryDx=0;entryDy=0;endArrow=none;endFill=0;" edge="1" parent="1" source="EWKSh8gcWTgYiogNN_7c-113" target="EWKSh8gcWTgYiogNN_7c-115">
          <mxGeometry relative="1" as="geometry" />
        </mxCell>
        <mxCell id="EWKSh8gcWTgYiogNN_7c-113" value="PRODUCTO" style="rounded=0;whiteSpace=wrap;html=1;" vertex="1" parent="1">
          <mxGeometry x="1250" y="430" width="100" height="40" as="geometry" />
        </mxCell>
        <mxCell id="EWKSh8gcWTgYiogNN_7c-114" value="tipoPRODUCTO" style="rounded=0;whiteSpace=wrap;html=1;" vertex="1" parent="1">
          <mxGeometry x="1500" y="430" width="100" height="40" as="geometry" />
        </mxCell>
        <mxCell id="EWKSh8gcWTgYiogNN_7c-119" style="edgeStyle=orthogonalEdgeStyle;rounded=0;orthogonalLoop=1;jettySize=auto;html=1;exitX=1;exitY=0.5;exitDx=0;exitDy=0;entryX=0;entryY=0.5;entryDx=0;entryDy=0;endArrow=none;endFill=0;" edge="1" parent="1" source="EWKSh8gcWTgYiogNN_7c-115" target="EWKSh8gcWTgYiogNN_7c-114">
          <mxGeometry relative="1" as="geometry" />
        </mxCell>
        <mxCell id="EWKSh8gcWTgYiogNN_7c-115" value="compuesto" style="rhombus;whiteSpace=wrap;html=1;" vertex="1" parent="1">
          <mxGeometry x="1390" y="425" width="60" height="50" as="geometry" />
        </mxCell>
        <mxCell id="EWKSh8gcWTgYiogNN_7c-120" value="1" style="text;html=1;align=center;verticalAlign=middle;resizable=0;points=[];autosize=1;strokeColor=none;fillColor=none;" vertex="1" parent="1">
          <mxGeometry x="1345" y="418" width="30" height="30" as="geometry" />
        </mxCell>
        <mxCell id="EWKSh8gcWTgYiogNN_7c-121" value="1" style="text;html=1;align=center;verticalAlign=middle;resizable=0;points=[];autosize=1;strokeColor=none;fillColor=none;" vertex="1" parent="1">
          <mxGeometry x="1475" y="418" width="30" height="30" as="geometry" />
        </mxCell>
        <mxCell id="EWKSh8gcWTgYiogNN_7c-122" value="1" style="text;html=1;align=center;verticalAlign=middle;resizable=0;points=[];autosize=1;strokeColor=none;fillColor=none;" vertex="1" parent="1">
          <mxGeometry x="1295" y="398" width="30" height="30" as="geometry" />
        </mxCell>
        <mxCell id="EWKSh8gcWTgYiogNN_7c-123" value="*" style="text;html=1;align=center;verticalAlign=middle;resizable=0;points=[];autosize=1;strokeColor=none;fillColor=none;" vertex="1" parent="1">
          <mxGeometry x="1295" y="300" width="30" height="30" as="geometry" />
        </mxCell>
      </root>
    </mxGraphModel>
  </diagram>
</mxfile>
